<?xml version="1.0" encoding="utf-8"?>
<!-- Generator: Adobe Illustrator 16.0.4, SVG Export Plug-In . SVG Version: 6.00 Build 0)  -->
<!DOCTYPE svg PUBLIC "-//W3C//DTD SVG 1.0//EN" "http://www.w3.org/TR/2001/REC-SVG-20010904/DTD/svg10.dtd">
<svg version="1.0" id="Ebene_1" xmlns="http://www.w3.org/2000/svg" xmlns:xlink="http://www.w3.org/1999/xlink" x="0px" y="0px"
	 width="427.5px" height="81px" viewBox="0 0 427.5 81" enable-background="new 0 0 427.5 81" xml:space="preserve">
<g>
	<g>
		<path fill="#878686" d="M223.134,32.323c0-4.458,4.367-7.685,10.252-6.768c1.651,0.256,3.538,1.056,4.078,1.315
			c0.3,0.144,0.52,0.442,0.401,0.754c-0.311,0.812-0.492,1.222-0.816,1.989c-0.097,0.23-0.532,0.226-0.64,0
			c-0.891-1.878-3.124-3.04-5.544-2.838c-1.242,0.104-2.225,0.509-2.993,1.118c-0.804,0.636-1.204,1.522-1.204,2.663
			c0,1.024,0.311,1.898,0.932,2.624c0.623,0.739,1.588,1.51,2.896,2.312l3.498,2.157c2.188,1.348,3.73,2.585,4.625,3.712
			c0.805,1.043,1.242,2.258,1.312,3.647l0.007,0.423c0,2.08-0.788,3.817-2.363,5.212c-1.563,1.395-3.564,2.092-6.006,2.092
			c-0.306,0-0.601-0.006-0.885-0.02c-0.059-0.005-0.094-0.011-0.135-0.014c-0.62-0.534-1.383-1.228-1.834-1.665
			c0.061,0.014,0.09,0.028,0.153,0.041c0.567,0.12,1.216,0.186,1.966,0.186c1.265,0,2.781-0.4,3.698-1.201
			c0.93-0.801,1.396-1.918,1.396-3.352c0-0.599-0.101-1.163-0.302-1.69c-0.235-0.63-0.604-1.197-1.107-1.716
			c-0.609-0.608-1.892-1.521-3.848-2.74l-3.401-2.119c-1.023-0.647-1.84-1.301-2.448-1.962
			C223.694,35.228,223.134,34.074,223.134,32.323L223.134,32.323z"/>
		<path fill="#FFFFFF" d="M153.408,16.371c23.309-10.255,37.92,20.983,57.328,11.134c0.319,0.684,0.658,1.37,1.017,2.055
			c4.962,9.5,13.593,19.099,22.594,26.255l0.143,0.119c0.077,0.063,0.155,0.122,0.233,0.179c0.545,0.429,1.091,0.849,1.638,1.259
			c-16.028,6.047-31.939-26.501-67.12,4.732c-0.035-0.855-0.109-2.236-0.182-3.11c-1.175-14.268-7.286-30.627-14.551-41.097
			C154.143,17.373,153.777,16.864,153.408,16.371L153.408,16.371z"/>
		<path fill-rule="evenodd" clip-rule="evenodd" fill="#E40520" d="M234.347,55.815l0.143,0.119
			c0.005,0.009,0.001,0.003,0.007,0.007c-0.235,0.045-0.569,0.103-0.802,0.138c-0.02-0.007-0.002,0-0.021-0.007
			c-10.96-3.123-23.408-10.256-34.958-17.728c-15.07-1.548-25.517,3.745-28.843,19.921c-0.003,0.011-0.005,0.002-0.005,0.015
			c-0.249,0.223-0.536,0.474-0.806,0.717c-0.005-0.01,0.002,0-0.004-0.003c-1.175-14.268-7.286-30.627-14.551-41.097
			c0-0.006-0.002-0.013-0.004-0.018c0.328-0.128,0.981-0.363,1.339-0.466c0.016,0.002,0-0.002,0.046,0.004
			c18.809,1.685,32.047,14.105,43.034,20.793c12.612,1.702,12.203-7.265,12.245-8.375c0.002-0.001,0.002-0.004,0-0.01
			c0.184-0.082,0.393-0.182,0.578-0.272c0,0.006,0.001,0.011,0.008,0.007C216.715,39.06,225.346,48.659,234.347,55.815
			L234.347,55.815z"/>
		<path fill="#878686" d="M153.408,16.371c23.309-10.255,37.92,20.983,57.328,11.134c0.319,0.684,0.658,1.37,1.017,2.055
			c-18.149,8.892-33.38-20.638-57.246-11.663C154.143,17.373,153.777,16.864,153.408,16.371L153.408,16.371z"/>
		<path fill="#878686" d="M234.489,55.935c0.077,0.063,0.155,0.122,0.233,0.179c0.545,0.429,1.091,0.849,1.638,1.259
			c-16.028,6.047-31.939-26.501-67.12,4.732c-0.035-0.855-0.11-2.242-0.183-3.116c7.635-6.908,17.11-11.675,29.7-11.675
			C214.54,47.313,222.518,58.236,234.489,55.935L234.489,55.935z"/>
		<path fill="#878686" d="M101.111,44.102c0,2.346,0.218,3.093,0.694,4.065c0.885,1.771,2.491,2.656,4.964,2.656
			c2.164,0,4.255-0.937,5.201-2.742c0.686-1.311,0.844-2.822,0.844-4.675c0-4.991-0.002-12.862-0.002-12.862
			c0-0.366,0.296-0.662,0.662-0.662h0.347c0.366,0,0.662,0.296,0.662,0.662l-0.021,12.862c0,2.289-0.351,4.076-1.053,5.36
			c-1.295,2.364-3.757,3.546-7.384,3.546c-3.585,0-6.025-1.166-7.32-3.498c-0.702-1.252-1.053-2.904-1.053-4.956L97.65,30.941
			c0-0.585,0.475-1.06,1.06-1.06h1.342c0.585,0,1.06,0.474,1.06,1.06V44.102L101.111,44.102z"/>
		<path fill-rule="evenodd" clip-rule="evenodd" fill="#878686" d="M84.418,39.497c0,0-1.286,0.026-1.8,0.026
			c-0.379,0-0.58,0.12-0.318,0.498c0.104,0.149,0.187,0.277,0.351,0.482c0.191,0.238,0.436,0.389,0.672,0.4
			c1.698,0.084,3.411,0.326,4.701,0.981c1.361,0.692,2.042,1.981,2.042,3.87c0,1.899-0.582,3.184-1.746,3.853
			c-1.164,0.671-2.607,1.005-4.331,1.005l-2.783-0.047v-8.579l-0.013-2.703l0.013-8.141l1.548-0.011
			c1.587,0,3.238,0.192,4.149,0.576c1.646,0.703,2.47,1.695,2.47,3.704c0,1.702-0.714,2.881-2.141,3.541
			C86.488,39.294,85.549,39.476,84.418,39.497L84.418,39.497z M83.99,29.882c2.701,0,4.841,0.434,6.422,1.3
			c1.592,0.868,2.387,1.997,2.388,4.116c0,1.592-0.555,2.799-1.663,3.623c-0.626,0.473-1.564,0.862-2.816,1.169
			c1.548,0.374,2.871,1,3.969,1.877c1.098,0.867,1.646,2.086,1.647,3.656c0,2.634-1.219,4.446-3.656,5.434
			c-1.285,0.516-2.865,0.774-4.743,0.774l-6.714-0.002c-0.585,0-1.06-0.475-1.06-1.06V30.941c0-0.585,0.475-1.06,1.06-1.06H83.99
			L83.99,29.882z"/>
		<path fill="#878686" d="M131.681,51.362c-2.046-2.603-4.764-6.242-7.646-10.099c-0.396-0.532-0.048-0.891,0.266-0.891
			c1.117,0,2.436-0.336,3.154-0.624c1.759-0.723,2.64-2.083,2.64-4.081c0-1.922-0.788-3.233-2.365-3.936
			c-0.658-0.295-1.237-0.475-3.292-0.54c-0.574-0.018-1.263-0.027-2.101-0.027v13.652v5.952c0,0.585-0.475,1.06-1.06,1.06h-1.342
			c-0.585,0-1.06-0.475-1.06-1.06V30.941c0-0.585,0.475-1.06,1.06-1.06l5.366,0.02c1.911,0,3.503,0.243,4.777,0.729
			c2.418,0.918,3.627,2.607,3.627,5.069c0,1.651-0.54,2.92-1.619,3.806c-1.069,0.886-2.526,1.469-4.373,1.75
			c0,0,3.986,5.04,7.578,9.46c0.514,0.632-0.04,1.13-0.671,1.13h-1.815C132.328,51.846,131.975,51.738,131.681,51.362
			L131.681,51.362z"/>
		<path fill="#878686" d="M156.498,30.975c0.3,0.144,0.52,0.442,0.401,0.754c-0.31,0.812-0.492,1.222-0.815,1.989
			c-0.097,0.23-0.472,0.184-0.64,0c-0.266-0.29-0.449-0.477-0.766-0.751c-1.831-1.588-3.417-2.268-5.836-2.133
			c-2.25,0.126-3.723,0.895-5.247,2.419c-1.609,1.609-2.413,4.265-2.413,7.968c0,3.056,0.804,5.441,2.413,7.159
			c1.608,1.716,3.594,2.574,5.959,2.574c0.399,0,0.869-0.037,1.409-0.113c0.54-0.075,1.052-0.193,1.539-0.355
			c0.788-0.26,1.112-0.397,1.771-0.76l-0.005-8.597c0-0.585,0.475-1.06,1.06-1.06h1.112c0.585,0,1.06,0.474,1.06,1.06
			c0,0-0.007,4.889-0.007,8.154c0,0.335-0.117,0.56-0.377,0.773c-0.776,0.634-1.166,0.796-2.492,1.288
			c-1.882,0.698-3.73,0.971-5.49,0.971c-3.239,0-5.971-0.943-8.195-2.833c-2.451-2.084-3.676-4.88-3.676-8.389
			c0-3.088,0.905-5.799,2.931-7.936C146.113,26.913,155.019,30.264,156.498,30.975L156.498,30.975z"/>
		<path fill="#878686" d="M53.009,33.651l-0.007,17.512c0,0.366-0.297,0.663-0.663,0.663h-0.33c-0.366,0-0.663-0.296-0.663-0.663
			l0.004-20.222c0-0.585,0.474-1.06,1.06-1.06h1.675c0.592,0,0.939,0.435,1.154,0.986l6.188,16.483l6.433-16.483
			c0.215-0.552,0.562-0.986,1.154-0.986h1.812c0.585,0,1.06,0.474,1.06,1.06v19.828c0,0.585-0.474,1.06-1.06,1.06h-1.342
			c-0.585,0-1.06-0.475-1.06-1.06V33.248c0,0-5.725,14.211-7.25,17.892c-0.374,0.901-1.341,0.931-1.687-0.002L53.009,33.651
			L53.009,33.651z"/>
		<path fill="#878686" d="M20.62,27.436c0-0.585,0.475-1.06,1.06-1.06h1.342c0.585,0,1.06,0.475,1.06,1.06v23.333
			c0,0.585-0.475,1.06-1.06,1.06H21.68c-0.585,0-1.06-0.475-1.06-1.06V40.317H8.961v10.452c0,0.585-0.474,1.06-1.06,1.06H6.56
			c-0.585,0-1.06-0.475-1.06-1.06V27.436c0-0.585,0.475-1.06,1.06-1.06h1.342c0.585,0,1.06,0.475,1.06,1.06v11.559H20.62V27.436
			L20.62,27.436z"/>
		<path fill-rule="evenodd" clip-rule="evenodd" fill="#878686" d="M40.542,43.312l-4.091-11.231l-4.038,11.231H40.542
			L40.542,43.312z M31.898,44.657c0,0-1.633,4.568-2.454,6.699c-0.113,0.294-0.338,0.475-0.653,0.475h-0.556
			c-0.289,0-0.498-0.357-0.395-0.628c2.235-5.87,5.837-15.684,7.625-20.447c0.139-0.371,0.304-0.875,1.215-0.875h1.632
			c0.722,0,1.063,0.457,1.233,0.913c2.246,6.02,4.916,13.071,7.554,19.986c0.117,0.306,0.114,1.048-0.778,1.048l-1.67,0.001
			c-0.911,0-0.992-0.395-1.139-0.746c-0.914-2.181-2.501-6.428-2.501-6.428H31.898L31.898,44.657z"/>
		<path fill-rule="evenodd" clip-rule="evenodd" fill="#878686" d="M270.659,50.601c2.592,0,4.724-0.513,6.397-1.539
			c2.569-1.576,3.854-4.27,3.854-8.081c0-3.401-1.059-5.96-3.175-7.677c-1.813-1.468-4.216-2.202-7.206-2.203l-1.913,0.035
			l0.002,19.446L270.659,50.601L270.659,50.601z M271.274,29.887c3.013,0,5.561,0.497,7.645,1.49
			c3.757,1.781,5.636,4.966,5.636,9.555c0,1.652-0.341,3.223-1.021,4.713c-0.67,1.49-1.685,2.748-3.045,3.773
			c-0.863,0.648-1.76,1.14-2.688,1.474c-1.695,0.626-3.778,0.939-6.251,0.939l-5.239-0.002c-0.586,0-1.06-0.475-1.06-1.06V30.941
			c0-0.585,0.474-1.06,1.06-1.06L271.274,29.887L271.274,29.887z"/>
		<path fill-rule="evenodd" clip-rule="evenodd" fill="#878686" d="M248.338,27.054c0-0.905,0.733-1.639,1.639-1.639
			s1.64,0.733,1.64,1.639s-0.734,1.639-1.64,1.639S248.338,27.959,248.338,27.054L248.338,27.054z M254.479,27.054
			c0-0.905,0.734-1.639,1.639-1.639c0.905,0,1.64,0.733,1.64,1.639s-0.734,1.639-1.64,1.639
			C255.213,28.693,254.479,27.959,254.479,27.054L254.479,27.054z M247.237,44.102c0,2.346,0.218,3.093,0.693,4.065
			c0.885,1.771,2.491,2.656,4.964,2.656c2.164,0,4.256-0.937,5.201-2.742c0.687-1.311,0.844-2.822,0.844-4.675l-0.003-12.862
			c0-0.366,0.297-0.662,0.662-0.662h0.347c0.366,0,0.662,0.296,0.662,0.662l-0.021,12.862c0,2.289-0.352,4.076-1.053,5.36
			c-1.296,2.364-3.757,3.546-7.385,3.546c-3.584,0-6.024-1.166-7.319-3.498c-0.702-1.252-1.054-2.904-1.054-4.956l-0.001-12.918
			c0-0.585,0.475-1.06,1.06-1.06h1.342c0.585,0,1.061,0.474,1.061,1.06V44.102L247.237,44.102z"/>
	</g>
	<rect x="300.472" y="3.96" fill="#878686" width="0.775" height="74.273"/>
	<path fill="#878686" d="M335.176,51.532h-1.313l-0.419-3.915c-0.21,0.478-0.419,0.928-1.138,1.734
		c-0.926,1.075-2.868,2.692-6.395,2.692c-3.021,0-4.934-1.167-5.891-1.915c-0.985-0.777-2.868-2.69-3.585-5.919
		c-0.119-0.567-0.299-1.584-0.299-2.988c0-2.57,0.537-4.992,2.031-7.173c0.182-0.27,0.658-0.926,1.346-1.585
		c0.987-0.957,3.166-2.542,6.726-2.542c4.93,0,7.232,3.05,8.009,4.754c0.448,0.957,0.57,1.823,0.628,2.211h-1.942
		c-0.061-0.328-0.117-0.687-0.389-1.345c-0.657-1.434-2.361-3.916-6.425-3.885c-1.675,0-3.14,0.388-4.515,1.375
		c-1.076,0.807-2.6,2.332-3.198,5.439c-0.09,0.449-0.268,1.346-0.268,2.511c0,0.926,0.091,4.125,2.031,6.576
		c2.062,2.601,4.903,2.809,6.007,2.809c0.838,0,3.26-0.15,5.144-2.032c2.09-2.122,2.09-4.962,2.09-5.889h-7.2v-1.643h8.965V51.532z"
		/>
	<path fill="#878686" d="M350.822,30.431c2.628,0.028,3.975,0.628,4.932,1.375c1.884,1.464,1.913,3.557,1.913,4.333
		c0,0.209-0.029,0.808-0.151,1.405c-0.147,0.567-0.656,2.032-2.092,2.989c-0.807,0.538-1.554,0.717-1.883,0.806
		c0.718,0.12,2.451,0.419,3.26,2.332c0.387,0.957,0.387,1.854,0.447,2.87c0.061,0.837,0.12,1.674,0.209,2.48
		c0,0.089,0.119,1.435,0.509,2.152c0.058,0.09,0.118,0.18,0.269,0.358h-2.272c-0.029-0.059-0.089-0.119-0.118-0.209
		c-0.359-0.716-0.39-2.003-0.42-2.75c-0.06-0.926-0.06-1.882-0.208-2.81c-0.061-0.298-0.271-1.673-1.137-2.51
		c-1.166-1.167-3.108-1.136-4.603-1.167h-6.187v9.445h-2.003V30.431H350.822z M343.29,40.502h5.949
		c1.731-0.029,2.508-0.089,3.345-0.298c0.957-0.269,3.079-1.106,3.079-3.976c0-0.925-0.179-1.703-0.809-2.48
		c-0.896-1.106-2.18-1.584-4.93-1.614h-6.635V40.502z"/>
	<path fill="#878686" d="M377.675,32.134c3.466,3.019,3.556,7.742,3.556,8.997c0,1.106-0.09,4.304-2.152,7.085
		c-1.017,1.374-3.349,3.795-7.832,3.795c-0.687,0-2.45-0.03-4.212-0.837c-2.332-1.076-5.71-4.005-5.71-10.192
		c0-5.53,2.632-8.279,4.602-9.534c1.048-0.658,2.123-0.988,2.541-1.106c0.391-0.12,1.524-0.388,2.779-0.419
		C372.354,29.893,375.252,30.013,377.675,32.134z M367.99,32.373c-2.064,0.957-4.663,3.347-4.663,8.548
		c0,0.868,0.028,3.766,1.672,6.157c0.301,0.419,0.927,1.226,2.003,1.943c1.765,1.166,3.527,1.254,4.305,1.254
		c0.629,0,2.122-0.06,3.646-0.895c4.035-2.184,4.216-7.054,4.216-8.191c0-0.836-0.119-3.915-1.795-6.396
		c-0.746-1.076-2.602-3.109-6.099-3.109C370.737,31.686,369.362,31.746,367.99,32.373z"/>
	<path fill="#878686" d="M401.479,43.074c-0.032,2.451-0.18,4.603-1.855,6.545c-1.585,1.883-3.735,2.391-6.096,2.391
		c-3.618,0-5.41-1.285-6.457-2.541c-0.539-0.628-0.928-1.315-1.195-2.123c-0.509-1.435-0.509-2.81-0.537-4.333V30.431h2.003v12.672
		c0.028,1.884,0.057,3.796,1.344,5.381c0.807,0.985,2.153,1.853,4.9,1.853c0.48,0,2.094,0,3.469-0.837
		c2.24-1.375,2.393-4.125,2.421-6.426V30.431h2.004V43.074z"/>
	<path fill="#878686" d="M415.837,30.431c0.659,0,1.316,0.028,2.002,0.149c1.793,0.239,3.378,0.835,4.425,2.42
		c0.685,0.987,0.957,2.152,0.957,3.347c0,0.479-0.031,1.585-0.568,2.781c-1.525,3.496-5.829,3.347-6.607,3.377h-6.662v9.026h-2.004
		V30.431H415.837z M409.383,40.833h6.124c1.794-0.029,3.707-0.029,4.901-1.704c0.301-0.419,0.809-1.315,0.809-2.69
		c0-0.568-0.09-2.332-1.643-3.408c-1.227-0.867-2.783-0.837-4.187-0.867h-6.005V40.833z"/>
</g>
</svg>
